<svg width="70" height="50" viewBox="0 0 70 50" fill="none" xmlns="http://www.w3.org/2000/svg">
<path d="M43.0338 34.5312C43.9284 36.3485 45.3183 37.8759 47.0434 38.9375C48.7684 39.9991 50.7584 40.5515 52.7838 40.5313C56.8713 40.5313 59.485 38.4875 59.485 35.6562C59.485 32.2812 56.8 31.0738 52.3 29.105L49.8325 28.0475C42.7075 25.0138 37.9825 21.215 37.9825 13.1825C37.9825 5.78375 43.6075 0.147504 52.4313 0.147504C55.2877 -0.0587656 58.1416 0.580521 60.637 1.98562C63.1324 3.39072 65.159 5.49944 66.4638 8.04875L58.75 12.98C58.2476 11.716 57.3728 10.6345 56.2416 9.87905C55.1105 9.1236 53.7764 8.72984 52.4163 8.75C51.8229 8.6906 51.2236 8.75546 50.6567 8.94045C50.0897 9.12544 49.5675 9.4265 49.1234 9.82445C48.6792 10.2224 48.3228 10.7085 48.0769 11.2518C47.831 11.7951 47.7009 12.3837 47.695 12.98C47.695 15.9388 49.5288 17.1388 53.7625 18.98L56.23 20.0375C64.615 23.6338 69.355 27.2975 69.355 35.5363C69.355 44.42 62.3763 49.2875 53.005 49.2875C49.3537 49.5201 45.713 48.6912 42.5223 46.9005C39.3317 45.1099 36.7274 42.4342 35.0238 39.1963L43.0338 34.5312ZM8.17752 35.3863C9.72627 38.135 11.1363 40.46 14.5263 40.46C17.7663 40.46 19.8138 39.1925 19.8138 34.2612V0.710003H29.68V34.3925C29.68 44.6075 23.68 49.2575 14.9463 49.2575C11.8591 49.4263 8.79309 48.6569 6.15134 47.0506C3.50959 45.4442 1.41573 43.0761 0.14502 40.2575L8.17752 35.3863Z" fill="black"/>
</svg>
